<?xml version="1.0" encoding="UTF-8" ?>
<!DOCTYPE svg PUBLIC "-//W3C//DTD SVG 1.1//EN" "http://www.w3.org/Graphics/SVG/1.1/DTD/svg11.dtd">
<svg width="1359pt" height="736pt" viewBox="0 0 1359 736" version="1.1" xmlns="http://www.w3.org/2000/svg">
<path fill="#ffffff" d=" M 0.00 0.00 L 1359.00 0.00 L 1359.00 736.00 L 0.00 736.00 L 0.00 0.00 Z" />
<path fill="#6d90ae" d=" M 276.37 8.25 C 287.58 6.53 298.77 9.20 310.00 8.69 C 317.38 8.37 324.62 10.18 331.98 10.32 C 342.88 10.27 353.70 11.89 364.57 12.54 C 377.64 13.19 390.61 15.03 403.68 15.68 C 435.81 19.10 468.04 21.81 499.96 26.88 C 509.59 27.83 519.05 29.90 528.61 31.27 C 539.86 32.71 550.96 35.02 562.10 37.11 C 571.30 39.67 580.91 40.26 590.10 42.89 C 605.39 46.22 620.58 50.03 635.56 54.56 C 644.03 57.59 652.93 59.23 661.30 62.55 C 679.24 68.40 696.53 76.02 713.28 84.67 C 717.61 86.93 721.78 89.50 725.74 92.37 C 725.24 101.97 722.30 111.33 722.83 121.01 C 722.31 132.62 724.14 144.26 727.72 155.30 C 733.62 171.93 746.07 186.08 761.64 194.34 C 765.70 196.60 770.49 196.29 774.93 197.18 C 782.20 198.69 789.64 197.98 797.00 198.08 C 803.34 198.15 809.69 197.97 816.04 198.09 C 822.12 198.15 827.99 200.00 834.03 200.49 C 839.14 200.89 844.27 201.45 849.26 202.70 C 851.08 194.89 852.68 186.97 852.27 178.90 C 861.09 183.34 866.18 192.30 874.12 197.90 C 879.07 201.20 883.43 205.35 888.56 208.38 C 897.97 212.74 907.34 217.39 917.43 220.01 C 918.20 212.32 914.83 205.20 913.98 197.70 C 921.76 200.24 927.00 206.81 932.59 212.39 C 936.58 216.78 941.30 220.41 946.06 223.93 C 949.01 226.09 953.00 226.65 955.42 229.56 C 957.51 231.74 959.33 234.38 962.20 235.62 C 971.03 239.57 980.56 241.65 989.37 245.68 C 987.75 238.05 986.42 230.35 984.56 222.76 C 985.64 221.92 986.62 220.83 987.94 220.32 C 992.29 223.58 994.65 228.74 998.71 232.31 C 1005.41 238.21 1011.37 244.88 1017.87 251.00 C 1022.09 249.38 1026.20 247.45 1030.02 245.02 C 1035.57 241.24 1042.20 246.15 1048.15 243.99 C 1054.76 241.92 1061.84 241.18 1068.69 242.41 C 1074.06 244.04 1077.89 248.66 1080.63 253.35 C 1085.11 261.63 1091.47 268.66 1096.39 276.66 C 1104.55 289.08 1112.77 301.49 1121.70 313.38 C 1123.57 315.83 1123.43 319.11 1123.23 322.03 C 1122.97 325.11 1120.40 327.18 1118.58 329.42 C 1125.42 336.98 1133.50 343.26 1141.44 349.61 C 1154.27 358.51 1167.81 366.81 1182.60 372.00 C 1188.25 373.84 1194.13 374.93 1199.76 376.85 C 1207.82 379.60 1216.48 379.17 1224.69 381.25 C 1224.67 383.22 1224.67 385.19 1224.68 387.17 C 1216.45 388.87 1208.14 390.41 1200.14 392.98 C 1192.68 395.54 1187.00 401.21 1180.67 405.65 C 1176.33 408.64 1172.58 412.42 1169.84 416.93 C 1168.10 417.86 1166.35 419.08 1164.33 419.12 C 1160.82 417.79 1158.51 414.57 1156.08 411.88 C 1152.53 407.49 1148.60 403.41 1144.11 399.98 C 1138.83 395.96 1134.67 390.72 1129.48 386.60 C 1126.37 384.10 1123.26 381.60 1120.13 379.13 C 1111.12 372.60 1101.67 366.70 1092.43 360.51 C 1080.48 352.58 1067.70 346.04 1054.50 340.48 C 1047.41 337.79 1040.77 334.05 1033.67 331.39 C 1024.03 327.63 1014.52 322.26 1008.60 313.50 C 1005.78 308.72 1002.94 303.68 1002.64 298.01 C 1002.14 293.88 1002.04 288.41 997.50 286.58 C 989.12 282.87 980.56 279.58 972.23 275.76 C 960.71 271.57 949.90 265.68 938.26 261.82 C 925.23 257.34 912.28 252.60 898.98 248.96 C 882.61 243.70 865.97 239.28 849.15 235.74 C 836.16 232.67 822.58 230.05 809.26 232.37 C 792.19 236.80 776.36 245.48 763.04 257.00 C 749.06 268.60 738.97 284.23 731.76 300.76 C 730.60 303.71 729.85 306.80 729.07 309.87 C 730.66 310.25 732.26 310.63 733.87 311.00 C 720.11 309.30 706.30 315.00 696.53 324.56 C 686.60 334.60 680.74 347.68 672.93 359.28 C 668.69 348.24 672.19 336.49 672.46 325.12 C 674.02 305.74 681.63 287.21 691.92 270.87 C 696.60 262.85 703.01 256.07 709.19 249.20 C 716.49 241.78 724.70 235.23 733.32 229.39 C 738.59 225.74 744.65 223.35 749.62 219.24 C 733.58 192.18 722.39 162.56 713.86 132.37 C 711.94 124.26 709.97 116.16 707.89 108.10 C 707.36 105.24 704.44 104.08 702.20 102.80 C 689.60 96.32 676.38 91.17 663.34 85.67 C 651.57 81.49 640.08 76.53 628.11 72.91 C 610.57 67.56 593.13 61.85 575.33 57.41 C 564.91 54.28 554.21 52.24 543.74 49.31 C 526.45 45.88 509.35 41.36 491.87 38.92 C 486.57 38.15 481.43 36.58 476.14 35.81 C 467.25 34.23 458.25 33.38 449.42 31.54 C 430.68 28.29 411.75 26.41 392.87 24.21 C 381.02 22.90 368.97 23.28 357.30 20.57 C 345.10 18.72 332.69 19.33 320.43 18.43 C 310.57 16.29 300.47 17.93 290.53 16.69 C 285.36 16.13 280.17 16.44 274.99 16.35 C 269.95 16.29 265.08 14.77 260.04 14.68 C 255.95 14.56 251.86 14.57 247.79 14.11 C 237.44 12.98 227.01 14.30 216.65 13.37 C 224.29 10.60 232.53 10.75 240.50 9.74 C 252.45 9.16 264.42 8.84 276.37 8.25 Z" />
<path fill="#838383" d=" M 666.75 17.15 C 672.62 18.82 678.46 20.61 684.49 21.63 C 690.13 22.57 694.90 26.68 700.79 26.40 C 701.25 27.01 701.73 27.62 702.21 28.22 C 703.68 27.96 705.15 27.70 706.64 27.45 C 706.10 28.69 705.57 29.93 705.05 31.17 C 707.27 30.44 709.47 29.67 711.69 28.93 C 711.23 30.02 710.77 31.10 710.31 32.18 C 716.06 30.56 721.78 32.81 727.05 34.96 C 739.20 39.85 752.05 42.79 764.04 48.09 C 772.01 51.66 780.50 53.89 788.45 57.52 C 796.43 61.26 804.84 64.05 812.53 68.44 C 822.22 72.52 831.92 76.67 841.09 81.86 C 848.90 86.25 857.48 89.10 865.20 93.67 C 873.32 98.33 882.01 101.94 889.92 106.98 C 897.48 111.89 905.61 115.82 913.19 120.71 C 921.27 125.07 928.19 131.18 935.98 136.00 C 944.17 141.87 953.14 146.62 960.94 153.03 C 971.03 161.41 982.68 167.73 992.45 176.51 C 996.54 180.56 1001.50 183.52 1006.01 187.06 C 1009.33 189.67 1012.00 192.99 1015.26 195.69 C 1025.72 203.13 1033.69 213.35 1042.95 222.15 C 1045.31 223.82 1043.55 227.82 1040.88 227.87 C 1037.33 227.96 1033.77 227.51 1030.30 226.79 C 1026.31 226.05 1023.81 222.58 1021.08 219.92 C 1011.95 210.71 1002.77 201.55 993.60 192.38 C 985.48 185.52 976.87 179.21 969.27 171.74 C 958.11 164.04 948.63 154.10 937.00 147.04 C 932.46 144.32 928.40 140.86 923.76 138.30 C 914.87 133.30 906.48 127.49 897.80 122.16 C 891.94 119.23 886.94 114.86 880.92 112.25 C 871.12 108.18 862.33 102.15 853.05 97.09 C 835.09 88.94 817.90 79.20 799.90 71.14 C 791.42 67.19 783.00 63.13 774.29 59.72 C 764.72 54.36 754.30 50.89 744.16 46.81 C 736.05 44.15 728.47 40.14 720.36 37.48 C 708.99 32.37 696.61 30.04 685.27 24.87 C 679.16 22.09 671.64 22.26 666.75 17.15 Z" />
<path fill="#838383" d=" M 571.55 112.37 C 579.73 111.47 587.97 112.11 596.16 111.33 C 620.43 110.66 644.72 111.21 669.00 110.97 C 675.68 110.77 682.31 111.96 688.99 111.81 C 693.33 111.70 697.65 112.13 701.91 112.95 C 703.75 118.17 705.12 123.55 706.06 129.00 C 701.15 131.94 695.36 130.55 690.01 130.13 C 679.03 129.18 668.03 128.63 657.02 128.06 C 643.39 126.48 629.63 128.22 615.99 126.74 C 599.66 126.42 583.33 126.73 567.00 126.59 C 562.00 126.54 556.99 126.57 552.01 127.03 C 543.35 127.74 534.65 127.22 525.98 127.34 C 519.64 127.36 513.35 128.60 507.00 128.33 C 498.96 127.99 491.00 129.42 482.96 129.26 C 467.00 129.98 451.07 131.44 435.10 131.98 C 425.05 133.27 414.81 132.62 404.88 134.78 C 398.49 135.83 391.98 134.74 385.57 135.62 C 378.08 136.58 370.57 137.50 363.01 137.66 C 357.48 137.71 352.13 139.26 346.66 139.87 C 340.28 140.59 333.88 141.24 327.47 141.62 C 316.66 142.30 306.15 145.25 295.32 145.70 C 283.25 147.21 271.14 148.38 259.07 149.97 C 254.69 150.44 250.30 149.90 245.92 149.66 C 253.83 145.98 262.68 145.63 270.90 142.97 C 281.75 139.85 293.14 139.75 304.06 137.03 C 316.71 134.56 329.65 133.99 342.26 131.23 C 353.90 129.25 365.81 129.71 377.46 127.76 C 383.86 126.84 390.37 126.84 396.74 125.63 C 403.02 124.47 409.45 124.76 415.75 123.73 C 426.16 122.06 436.72 121.88 447.17 120.58 C 465.11 119.12 483.01 117.09 501.00 116.23 C 510.01 115.80 518.96 114.24 528.00 114.39 C 535.55 114.55 543.02 113.20 550.55 112.96 C 557.54 112.51 564.57 112.98 571.55 112.37 Z" />
<path fill="#838383" d=" M 658.29 150.12 C 674.16 147.92 689.97 144.70 706.04 144.54 C 707.90 144.70 710.67 144.31 711.33 146.62 C 713.66 151.37 714.91 156.57 716.16 161.69 C 707.18 163.11 698.05 162.61 689.03 163.79 C 671.06 164.56 653.20 166.72 635.39 169.19 C 617.71 172.35 599.81 174.29 582.30 178.37 C 571.74 180.05 561.43 182.98 550.88 184.67 C 543.05 185.57 535.86 189.06 528.11 190.33 C 509.04 195.28 490.20 201.03 471.21 206.22 C 453.92 212.41 436.01 216.79 419.06 223.95 C 406.93 227.92 394.90 232.17 383.03 236.84 C 374.37 239.30 366.98 244.71 358.49 247.60 C 350.12 250.75 341.79 253.98 333.66 257.71 C 332.34 258.12 330.94 259.08 329.54 258.60 C 328.46 258.25 327.38 257.90 326.31 257.55 C 328.33 256.05 330.46 254.69 332.76 253.66 C 344.46 248.61 355.66 242.51 367.23 237.19 C 378.32 232.46 388.82 226.48 400.00 221.97 C 409.32 217.38 419.51 215.01 429.02 210.85 C 441.53 204.96 455.23 202.30 467.98 197.00 C 494.72 188.24 521.68 180.09 548.90 172.92 C 562.81 169.99 576.36 165.53 590.39 163.14 C 612.78 157.57 635.55 153.90 658.29 150.12 Z" />
<path fill="#ffffff" d=" M 763.04 257.00 C 776.36 245.48 792.19 236.80 809.26 232.37 C 822.58 230.05 836.16 232.67 849.15 235.74 C 865.97 239.28 882.61 243.70 898.98 248.96 C 912.28 252.60 925.23 257.34 938.26 261.82 C 949.90 265.68 960.71 271.57 972.23 275.76 C 980.56 279.58 989.12 282.87 997.50 286.58 C 1002.04 288.41 1002.14 293.88 1002.64 298.01 C 1002.94 303.68 1005.78 308.72 1008.60 313.50 C 999.30 316.67 989.03 321.64 985.69 331.65 C 981.24 345.85 977.96 360.40 973.85 374.71 C 967.03 400.25 959.95 425.71 953.32 451.30 C 947.15 447.38 940.77 443.78 934.05 440.88 C 945.60 397.22 957.43 353.63 968.84 309.94 C 957.24 309.72 945.63 309.73 934.02 309.91 C 925.89 338.92 918.90 368.24 910.48 397.17 C 906.04 390.47 903.04 382.99 899.04 376.05 C 891.18 360.61 882.84 345.41 875.03 329.94 C 871.55 323.00 867.98 314.63 859.95 312.05 C 849.94 309.22 838.66 310.23 829.60 315.48 C 820.42 320.71 812.41 328.72 808.98 338.89 C 805.93 347.86 804.08 357.17 801.42 366.26 C 796.73 384.21 791.56 402.05 787.23 420.10 C 779.09 415.34 770.38 411.55 762.89 405.75 C 761.06 381.48 758.81 357.23 756.86 332.97 C 755.81 321.16 744.86 313.01 733.87 311.00 C 732.26 310.63 730.66 310.25 729.07 309.87 C 729.85 306.80 730.60 303.71 731.76 300.76 C 738.97 284.23 749.06 268.60 763.04 257.00 Z" />
<path fill="#010101" d=" M 1314.45 244.66 C 1327.26 240.59 1341.81 247.26 1348.03 258.95 C 1352.35 266.88 1352.60 276.84 1348.94 285.07 C 1344.25 295.33 1333.34 302.53 1321.99 302.23 C 1309.92 302.12 1298.68 293.67 1294.87 282.29 C 1292.41 274.43 1293.01 265.42 1297.27 258.28 C 1301.02 251.80 1307.25 246.77 1314.45 244.66 Z" />
<path fill="#ffffff" d=" M 1300.59 268.00 C 1302.61 257.84 1312.65 249.96 1323.02 250.43 C 1334.72 250.41 1345.41 261.19 1344.76 273.00 C 1345.06 278.29 1342.80 283.22 1339.80 287.43 C 1335.75 283.80 1332.38 279.51 1329.00 275.28 C 1331.56 273.74 1334.74 272.64 1336.26 269.85 C 1337.59 266.33 1336.53 261.81 1332.94 260.10 C 1325.62 256.29 1317.07 257.52 1309.13 257.41 L 1308.30 257.48 C 1308.25 267.79 1307.95 278.13 1308.60 288.43 C 1312.11 288.39 1315.62 288.37 1319.15 288.28 C 1319.21 284.82 1319.24 281.37 1319.33 277.92 C 1322.37 281.22 1324.85 285.05 1328.23 288.03 C 1331.58 288.65 1335.02 288.35 1338.42 288.60 C 1334.42 292.78 1328.78 295.20 1323.00 295.34 C 1314.93 295.56 1306.97 291.04 1302.96 284.04 C 1300.07 279.26 1299.74 273.40 1300.59 268.00 Z" />
<path fill="#6d90ae" d=" M 323.49 259.10 C 324.20 258.37 325.15 257.05 326.31 257.55 C 327.38 257.90 328.46 258.25 329.54 258.60 C 327.09 260.51 324.33 261.99 321.34 262.86 C 321.53 262.38 321.91 261.44 322.09 260.96 C 322.44 260.50 323.14 259.57 323.49 259.10 Z" />
<path fill="#b12633" d=" M 1308.30 257.48 L 1309.13 257.41 C 1308.52 267.75 1309.34 278.11 1308.60 288.43 C 1307.95 278.13 1308.25 267.79 1308.30 257.48 Z" />
<path fill="#010101" d=" M 297.56 273.65 C 305.87 268.26 314.70 263.66 323.49 259.10 C 323.14 259.57 322.44 260.50 322.09 260.96 C 319.67 264.57 315.25 265.53 311.53 267.18 C 306.71 268.99 302.55 272.24 297.56 273.65 Z" />
<path fill="#6d90ae" d=" M 1318.80 263.22 C 1320.63 263.22 1322.50 263.21 1324.36 263.21 C 1322.91 263.47 1321.47 263.73 1320.05 264.00 C 1319.78 266.21 1319.50 268.43 1319.24 270.65 C 1318.87 268.19 1318.74 265.70 1318.80 263.22 Z" />
<path fill="#ffffff" d=" M 1320.05 264.00 C 1321.47 263.73 1322.91 263.47 1324.36 263.21 C 1325.17 264.64 1326.87 266.00 1326.25 267.84 C 1325.03 270.56 1321.66 270.19 1319.24 270.65 C 1319.50 268.43 1319.78 266.21 1320.05 264.00 Z" />
<path fill="#010101" d=" M 124.18 266.88 C 146.81 266.78 169.45 266.75 192.09 266.89 C 175.81 328.92 158.73 390.73 142.48 452.76 C 141.33 456.86 140.09 460.94 138.99 465.06 C 136.88 473.76 134.27 482.32 132.12 491.01 C 127.38 509.50 114.72 526.02 97.56 534.57 C 92.63 536.68 87.50 538.90 82.05 538.87 C 58.17 538.83 34.28 538.81 10.39 538.87 C 14.19 526.35 17.13 513.58 20.97 501.07 C 31.65 500.79 42.34 501.14 53.02 500.97 C 57.68 501.00 62.46 498.39 63.38 493.51 C 83.72 417.99 103.96 342.44 124.18 266.88 Z" />
<path fill="#010101" d=" M 657.47 267.38 C 659.53 266.58 661.80 266.84 663.98 266.76 C 671.98 266.88 679.98 266.71 687.98 266.92 C 651.00 328.08 613.59 388.99 576.47 450.08 C 572.02 457.26 567.71 464.69 561.64 470.66 C 554.82 477.16 546.48 482.48 537.06 484.07 C 528.67 485.27 519.18 485.28 512.05 480.03 C 509.56 478.24 507.04 476.44 504.96 474.18 C 501.88 469.32 500.61 463.59 500.21 457.91 C 499.62 449.29 498.95 440.67 498.05 432.07 C 495.29 397.09 492.27 362.13 489.48 327.15 C 488.91 321.70 488.74 316.21 487.76 310.82 C 507.55 310.70 527.35 310.56 547.15 310.89 C 547.91 327.28 549.79 343.60 550.98 359.97 C 553.23 384.00 554.58 408.11 557.12 432.11 C 587.12 382.45 617.40 332.97 647.44 283.35 C 651.02 278.18 653.61 272.35 657.47 267.38 Z" />
<path fill="#ffffff" d=" M 1080.17 287.27 C 1082.39 288.89 1084.50 290.79 1085.67 293.36 C 1088.74 300.19 1095.52 304.29 1098.81 311.02 C 1096.30 310.75 1093.78 310.67 1091.29 310.39 C 1087.22 308.07 1082.63 305.24 1081.28 300.45 C 1079.75 296.23 1079.98 291.67 1080.17 287.27 Z" />
<path fill="#838383" d=" M 934.02 309.91 C 945.63 309.73 957.24 309.72 968.84 309.94 C 957.43 353.63 945.60 397.22 934.05 440.88 C 931.89 447.30 930.65 454.02 928.13 460.32 C 922.83 471.88 911.62 479.79 899.74 483.55 C 892.18 485.30 883.71 485.84 876.55 482.38 C 870.69 479.59 867.81 473.46 865.00 468.00 C 857.69 454.46 850.96 440.61 843.39 427.21 C 838.15 417.64 833.51 407.76 827.94 398.37 C 824.77 408.02 822.57 417.95 819.76 427.71 C 817.49 437.07 814.23 446.16 812.22 455.58 C 810.53 463.52 807.57 471.13 805.94 479.09 C 805.51 480.94 805.10 482.80 804.70 484.66 C 792.84 484.71 780.98 484.70 769.13 484.51 C 769.09 483.79 769.02 482.37 768.98 481.65 C 771.06 478.46 772.57 474.93 773.53 471.24 C 777.79 454.11 782.73 437.16 787.23 420.10 C 791.56 402.05 796.73 384.21 801.42 366.26 C 804.08 357.17 805.93 347.86 808.98 338.89 C 812.41 328.72 820.42 320.71 829.60 315.48 C 838.66 310.23 849.94 309.22 859.95 312.05 C 867.98 314.63 871.55 323.00 875.03 329.94 C 882.84 345.41 891.18 360.61 899.04 376.05 C 903.04 382.99 906.04 390.47 910.48 397.17 C 918.90 368.24 925.89 338.92 934.02 309.91 Z" />
<path fill="#010101" d=" M 215.38 316.39 C 226.86 311.38 239.63 310.52 252.00 310.71 C 279.96 310.82 307.93 310.55 335.89 310.85 C 333.35 320.88 330.49 330.82 327.85 340.82 C 309.23 340.89 290.62 340.85 272.00 340.84 C 266.00 340.84 259.69 340.44 254.05 342.88 C 250.68 345.02 249.49 349.08 248.51 352.72 C 245.85 362.51 243.21 372.30 240.84 382.16 C 266.22 382.41 291.59 382.08 316.97 382.32 C 314.21 392.28 311.56 402.27 308.93 412.26 C 283.43 412.50 257.93 412.24 232.42 412.39 C 230.96 418.36 229.21 424.25 227.63 430.20 C 226.33 435.10 225.02 440.00 223.69 444.90 C 223.14 447.46 221.89 450.80 224.15 452.90 C 225.50 454.74 227.92 454.49 229.94 454.56 C 239.56 454.51 249.19 454.50 258.81 454.51 C 271.61 454.83 284.42 454.32 297.22 454.81 C 296.77 456.89 296.30 458.98 295.80 461.07 C 294.93 464.60 293.80 468.06 292.80 471.57 C 291.67 475.88 290.64 480.22 289.49 484.53 C 281.09 484.79 272.68 484.65 264.28 484.68 C 248.57 484.60 232.86 484.60 217.16 484.68 C 208.87 484.59 200.59 484.58 192.31 484.72 C 184.75 485.18 177.08 483.35 170.61 479.41 C 165.40 476.45 162.43 469.83 164.00 464.01 C 164.53 461.29 165.34 458.65 166.09 455.99 C 167.38 451.37 168.79 446.78 169.97 442.12 C 179.53 406.08 189.30 370.08 199.07 334.09 C 200.92 325.75 207.91 319.80 215.38 316.39 Z" />
<path fill="#010101" d=" M 357.94 322.93 C 368.14 313.47 382.64 311.43 395.97 310.72 C 426.27 310.76 456.56 310.63 486.86 310.79 C 486.59 321.17 482.61 330.91 480.08 340.85 C 459.04 340.86 438.00 340.83 416.95 340.86 C 412.31 341.26 406.40 341.20 403.62 345.65 C 401.37 349.15 400.74 353.37 399.54 357.29 C 397.56 365.61 395.08 373.80 393.12 382.12 C 418.48 382.43 443.84 382.11 469.20 382.28 C 466.64 392.33 463.92 402.34 461.14 412.33 C 435.77 412.36 410.39 412.39 385.02 412.31 C 383.01 418.49 381.39 424.79 379.84 431.10 C 378.39 437.38 375.54 443.40 375.28 449.89 C 375.08 453.46 378.98 454.86 381.94 454.66 C 404.45 454.73 426.97 454.36 449.47 454.79 C 448.72 458.10 447.91 461.41 447.08 464.71 C 445.41 471.37 443.54 477.97 441.65 484.57 C 408.76 484.74 375.86 484.53 342.97 484.67 C 335.18 485.01 327.23 482.61 320.94 478.01 C 315.65 473.65 314.96 466.03 317.37 459.95 C 319.39 452.72 321.45 445.51 323.25 438.22 C 332.64 403.57 341.97 368.90 351.34 334.24 C 352.58 330.01 354.53 325.84 357.94 322.93 Z" />
<path fill="#010101" d=" M 696.53 324.56 C 706.30 315.00 720.11 309.30 733.87 311.00 C 744.86 313.01 755.81 321.16 756.86 332.97 C 758.81 357.23 761.06 381.48 762.89 405.75 C 764.70 427.13 766.29 448.53 768.39 469.89 C 768.63 473.80 768.71 477.73 768.98 481.65 C 769.02 482.37 769.09 483.79 769.13 484.51 C 749.71 484.80 730.30 484.50 710.89 484.69 C 709.78 477.40 709.12 470.03 709.14 462.66 C 700.44 461.96 691.71 462.40 683.00 462.30 C 668.45 462.34 653.90 462.18 639.35 462.38 C 636.20 467.49 633.15 472.65 630.07 477.80 C 623.36 472.40 616.21 467.57 608.54 463.64 C 630.04 428.87 651.45 394.05 672.93 359.28 C 680.74 347.68 686.60 334.60 696.53 324.56 Z" />
<path fill="#b12633" d=" M 1091.29 310.39 C 1093.78 310.67 1096.30 310.75 1098.81 311.02 C 1101.70 312.70 1102.68 316.23 1104.02 319.10 C 1099.34 316.89 1095.08 313.88 1091.29 310.39 Z" />
<path fill="#838383" d=" M 1141.44 349.61 C 1163.17 327.24 1193.10 310.60 1225.00 311.57 C 1243.95 310.96 1263.11 319.07 1275.34 333.66 C 1288.32 347.82 1291.99 368.19 1289.79 386.78 C 1287.48 403.21 1280.70 418.76 1271.50 432.47 C 1261.84 445.69 1249.81 457.16 1236.07 466.07 C 1229.87 471.06 1222.36 473.82 1215.29 477.27 C 1203.14 482.15 1190.14 484.99 1177.00 484.73 C 1158.13 485.48 1138.73 478.15 1126.15 463.84 C 1119.32 456.48 1114.95 447.13 1112.34 437.52 C 1109.34 424.61 1109.97 411.04 1113.24 398.24 C 1115.17 391.75 1117.78 385.48 1120.13 379.13 C 1123.26 381.60 1126.37 384.10 1129.48 386.60 C 1134.67 390.72 1138.83 395.96 1144.11 399.98 C 1148.60 403.41 1152.53 407.49 1156.08 411.88 C 1158.51 414.57 1160.82 417.79 1164.33 419.12 C 1166.35 419.08 1168.10 417.86 1169.84 416.93 C 1167.85 426.99 1166.32 438.24 1171.31 447.68 C 1175.65 455.23 1185.89 456.15 1193.37 453.37 C 1203.02 449.66 1209.23 440.74 1213.98 432.00 C 1221.38 417.98 1225.44 402.52 1229.27 387.23 C 1231.93 376.77 1233.53 365.79 1231.83 355.04 C 1231.08 349.88 1227.96 344.87 1222.95 342.95 C 1214.56 339.80 1204.80 342.44 1198.10 348.10 C 1190.92 354.52 1186.56 363.38 1182.60 372.00 C 1167.81 366.81 1154.27 358.51 1141.44 349.61 Z" />
<path fill="#838383" d=" M 985.69 331.65 C 989.03 321.64 999.30 316.67 1008.60 313.50 C 1014.52 322.26 1024.03 327.63 1033.67 331.39 C 1040.77 334.05 1047.41 337.79 1054.50 340.48 C 1049.64 341.05 1044.49 340.81 1039.96 342.90 C 1035.90 345.41 1034.84 350.43 1033.70 354.71 C 1031.58 363.88 1028.49 372.81 1026.83 382.08 C 1052.17 382.56 1077.54 382.03 1102.89 382.34 C 1100.90 389.91 1098.42 397.35 1096.68 405.00 C 1096.12 407.29 1095.61 409.62 1094.63 411.78 C 1090.17 412.91 1085.53 412.26 1081.00 412.35 C 1060.10 412.35 1039.20 412.32 1018.30 412.36 C 1015.75 420.89 1013.79 429.59 1011.29 438.15 C 1010.32 441.75 1009.06 445.31 1008.75 449.05 C 1008.29 452.02 1010.92 455.01 1013.98 454.61 C 1037.02 454.77 1060.07 454.25 1083.10 454.84 C 1080.83 464.80 1077.84 474.58 1075.27 484.46 C 1046.82 484.93 1018.36 484.49 989.91 484.68 C 980.57 484.48 970.74 485.89 961.94 481.95 C 956.23 479.68 950.20 475.36 949.59 468.74 C 949.51 462.73 952.06 457.10 953.32 451.30 C 959.95 425.71 967.03 400.25 973.85 374.71 C 977.96 360.40 981.24 345.85 985.69 331.65 Z" />
<path fill="#ffffff" d=" M 1198.10 348.10 C 1204.80 342.44 1214.56 339.80 1222.95 342.95 C 1227.96 344.87 1231.08 349.88 1231.83 355.04 C 1233.53 365.79 1231.93 376.77 1229.27 387.23 C 1225.44 402.52 1221.38 417.98 1213.98 432.00 C 1209.23 440.74 1203.02 449.66 1193.37 453.37 C 1185.89 456.15 1175.65 455.23 1171.31 447.68 C 1166.32 438.24 1167.85 426.99 1169.84 416.93 C 1172.58 412.42 1176.33 408.64 1180.67 405.65 C 1187.00 401.21 1192.68 395.54 1200.14 392.98 C 1208.14 390.41 1216.45 388.87 1224.68 387.17 C 1224.67 385.19 1224.67 383.22 1224.69 381.25 C 1216.48 379.17 1207.82 379.60 1199.76 376.85 C 1194.13 374.93 1188.25 373.84 1182.60 372.00 C 1186.56 363.38 1190.92 354.52 1198.10 348.10 Z" />
<path fill="#6d90ae" d=" M 690.67 379.73 C 693.99 374.65 696.68 369.11 700.85 364.62 C 702.06 377.39 702.99 390.19 704.01 402.98 C 704.65 412.44 705.97 421.87 705.75 431.37 C 702.12 425.21 699.03 418.76 695.48 412.56 C 691.33 405.39 688.52 397.53 684.09 390.52 C 686.16 386.85 688.36 383.26 690.67 379.73 Z" />
<path fill="#ffffff" d=" M 658.30 432.01 C 666.58 417.99 675.37 404.27 684.09 390.52 C 688.52 397.53 691.33 405.39 695.48 412.56 C 699.03 418.76 702.12 425.21 705.75 431.37 L 706.17 432.10 C 690.21 432.16 674.25 432.32 658.30 432.01 Z" />
<path fill="#ffffff" d=" M 819.76 427.71 C 822.57 417.95 824.77 408.02 827.94 398.37 C 833.51 407.76 838.15 417.64 843.39 427.21 C 835.51 427.46 827.64 427.94 819.76 427.71 Z" />
<path fill="#6d90ae" d=" M 762.89 405.75 C 770.38 411.55 779.09 415.34 787.23 420.10 C 782.73 437.16 777.79 454.11 773.53 471.24 C 771.81 470.77 770.09 470.32 768.39 469.89 C 766.29 448.53 764.70 427.13 762.89 405.75 Z" />
<path fill="#6d90ae" d=" M 393.06 429.63 C 403.18 429.29 412.86 424.52 423.08 425.84 C 434.75 426.84 446.51 425.29 458.16 426.78 C 471.46 428.43 484.84 429.75 498.05 432.07 C 498.95 440.67 499.62 449.29 500.21 457.91 C 500.61 463.59 501.88 469.32 504.96 474.18 C 497.64 474.03 490.83 471.29 484.11 468.67 C 476.67 466.03 468.64 466.35 460.97 464.82 C 456.39 463.87 451.64 463.49 447.08 464.71 C 447.91 461.41 448.72 458.10 449.47 454.79 C 426.97 454.36 404.45 454.73 381.94 454.66 C 378.98 454.86 375.08 453.46 375.28 449.89 C 375.54 443.40 378.39 437.38 379.84 431.10 C 384.21 430.33 388.62 429.77 393.06 429.63 Z" />
<path fill="#6d90ae" d=" M 819.76 427.71 C 827.64 427.94 835.51 427.46 843.39 427.21 C 850.96 440.61 857.69 454.46 865.00 468.00 C 867.81 473.46 870.69 479.59 876.55 482.38 C 883.71 485.84 892.18 485.30 899.74 483.55 C 911.62 479.79 922.83 471.88 928.13 460.32 C 930.65 454.02 931.89 447.30 934.05 440.88 C 940.77 443.78 947.15 447.38 953.32 451.30 C 952.06 457.10 949.51 462.73 949.59 468.74 C 950.20 475.36 956.23 479.68 961.94 481.95 C 970.74 485.89 980.57 484.48 989.91 484.68 C 1001.56 500.31 1009.73 518.35 1014.93 537.07 C 1012.67 545.60 1010.58 554.19 1007.88 562.60 C 1001.30 552.02 996.20 540.62 990.18 529.74 C 988.42 526.54 985.53 523.86 981.87 523.11 C 972.50 520.87 962.62 525.41 956.51 532.49 C 952.38 537.27 951.18 543.66 949.60 549.58 C 947.95 556.14 946.05 562.64 944.33 569.19 C 944.15 567.70 943.92 566.23 943.70 564.77 C 943.19 566.26 942.69 567.77 942.25 569.30 C 942.99 562.44 943.04 555.50 942.30 548.64 C 942.83 550.17 943.40 551.69 943.99 553.22 C 943.92 549.36 943.63 545.44 942.15 541.85 C 939.71 535.90 937.52 529.67 933.36 524.65 C 928.75 518.95 923.20 514.06 917.34 509.68 C 911.79 505.50 905.09 503.35 899.13 499.90 C 891.65 495.66 883.42 493.03 875.20 490.67 C 868.81 488.90 862.75 485.70 856.01 485.53 C 847.99 485.24 840.01 484.33 832.01 483.90 C 823.09 483.66 814.79 479.86 805.94 479.09 C 807.57 471.13 810.53 463.52 812.22 455.58 C 814.23 446.16 817.49 437.07 819.76 427.71 Z" />
<path fill="#838383" d=" M 227.63 430.20 C 244.80 430.76 261.85 426.48 279.02 427.95 C 285.85 429.14 292.70 430.33 299.37 432.23 C 292.89 435.95 285.26 436.20 278.06 437.32 C 267.52 438.30 257.71 443.24 247.03 443.31 C 239.21 443.25 231.50 444.78 223.69 444.90 C 225.02 440.00 226.33 435.10 227.63 430.20 Z" />
<path fill="#6d90ae" d=" M 306.43 441.27 C 312.09 440.56 317.66 439.36 323.25 438.22 C 321.45 445.51 319.39 452.72 317.37 459.95 C 310.16 458.98 302.92 459.92 295.80 461.07 C 296.30 458.98 296.77 456.89 297.22 454.81 C 284.42 454.32 271.61 454.83 258.81 454.51 C 266.59 451.38 274.70 449.19 282.70 446.70 C 290.52 444.55 298.36 442.27 306.43 441.27 Z" />
<path fill="#838383" d=" M 158.06 447.01 C 162.17 445.75 166.27 444.35 169.97 442.12 C 168.79 446.78 167.38 451.37 166.09 455.99 C 156.98 458.79 147.92 461.73 138.99 465.06 C 140.09 460.94 141.33 456.86 142.48 452.76 C 147.71 450.93 152.76 448.63 158.06 447.01 Z" />
<path fill="#6d90ae" d=" M 561.64 470.66 C 567.71 464.69 572.02 457.26 576.47 450.08 C 587.10 454.72 598.16 458.41 608.54 463.64 C 616.21 467.57 623.36 472.40 630.07 477.80 C 642.53 486.51 653.57 497.24 662.36 509.66 C 665.58 514.31 667.92 519.48 670.68 524.41 C 678.92 538.54 687.24 552.63 695.08 566.99 C 703.52 581.86 714.49 595.50 728.31 605.70 C 733.69 610.08 739.84 613.40 746.40 615.63 C 778.17 628.59 811.79 636.86 845.89 640.51 C 852.95 641.15 860.10 642.85 867.19 641.45 C 890.91 636.12 912.56 622.79 928.55 604.55 C 931.86 600.44 934.81 596.06 938.00 591.87 C 935.92 601.09 932.96 610.12 931.30 619.44 C 939.01 619.89 946.74 619.90 954.45 619.43 C 958.81 606.43 961.51 592.94 965.54 579.84 C 972.52 590.21 977.06 601.97 983.27 612.78 C 984.84 615.43 987.08 617.85 990.09 618.82 C 996.73 621.09 1003.98 619.17 1009.94 615.88 C 1007.42 617.69 1004.86 619.65 1003.46 622.50 C 994.89 640.13 981.41 654.92 966.52 667.46 C 953.53 677.66 939.07 686.20 923.28 691.28 C 912.95 695.36 902.03 697.91 890.98 699.02 C 887.54 699.36 884.44 701.09 881.03 701.55 C 856.90 702.53 832.86 699.20 809.05 695.68 C 771.19 688.89 733.82 677.13 700.60 657.43 C 695.39 654.49 691.43 649.95 687.21 645.82 C 674.01 634.31 663.47 619.96 655.53 604.39 C 651.80 598.57 648.63 592.42 646.22 585.94 C 640.71 574.05 634.08 562.72 627.72 551.27 C 620.92 538.97 612.58 527.31 601.70 518.28 C 593.44 511.41 584.97 504.61 575.27 499.84 C 562.53 494.59 550.21 488.33 537.06 484.07 C 546.48 482.48 554.82 477.16 561.64 470.66 Z" />
<path fill="#ffffff" d=" M 639.35 462.38 C 653.90 462.18 668.45 462.34 683.00 462.30 C 691.71 462.40 700.44 461.96 709.14 462.66 C 709.12 470.03 709.78 477.40 710.89 484.69 C 730.30 484.50 749.71 484.80 769.13 484.51 C 780.98 484.70 792.84 484.71 804.70 484.66 C 805.10 482.80 805.51 480.94 805.94 479.09 C 814.79 479.86 823.09 483.66 832.01 483.90 C 840.01 484.33 847.99 485.24 856.01 485.53 C 862.75 485.70 868.81 488.90 875.20 490.67 C 883.42 493.03 891.65 495.66 899.13 499.90 C 905.09 503.35 911.79 505.50 917.34 509.68 C 923.20 514.06 928.75 518.95 933.36 524.65 C 937.52 529.67 939.71 535.90 942.15 541.85 C 943.63 545.44 943.92 549.36 943.99 553.22 C 943.40 551.69 942.83 550.17 942.30 548.64 C 939.78 539.74 933.85 531.80 925.73 527.28 C 915.81 521.73 903.72 521.36 892.89 524.07 C 878.65 527.72 866.10 536.52 856.55 547.54 C 846.56 559.44 840.37 575.37 842.92 591.02 C 844.85 603.66 854.71 614.51 866.95 618.02 C 880.49 621.99 895.31 619.15 907.56 612.56 C 924.13 603.43 937.94 588.04 942.25 569.30 C 942.69 567.77 943.19 566.26 943.70 564.77 C 943.92 566.23 944.15 567.70 944.33 569.19 C 942.54 576.83 940.57 584.44 938.00 591.87 C 934.81 596.06 931.86 600.44 928.55 604.55 C 912.56 622.79 890.91 636.12 867.19 641.45 C 860.10 642.85 852.95 641.15 845.89 640.51 C 811.79 636.86 778.17 628.59 746.40 615.63 C 739.84 613.40 733.69 610.08 728.31 605.70 C 714.49 595.50 703.52 581.86 695.08 566.99 C 687.24 552.63 678.92 538.54 670.68 524.41 C 667.92 519.48 665.58 514.31 662.36 509.66 C 653.57 497.24 642.53 486.51 630.07 477.80 C 633.15 472.65 636.20 467.49 639.35 462.38 Z" />
<path fill="#ffffff" d=" M 768.39 469.89 C 770.09 470.32 771.81 470.77 773.53 471.24 C 772.57 474.93 771.06 478.46 768.98 481.65 C 768.71 477.73 768.63 473.80 768.39 469.89 Z" />
<path fill="#838383" d=" M 289.49 484.53 C 290.64 480.22 291.67 475.88 292.80 471.57 C 298.75 475.78 306.49 473.75 313.28 474.51 C 312.24 476.01 311.81 478.36 309.75 478.77 C 304.07 480.55 298.04 481.22 292.59 483.71 C 279.38 489.98 266.88 497.65 254.63 505.61 C 241.77 514.87 229.13 524.61 218.18 536.13 C 213.85 539.64 211.99 545.19 207.70 548.72 C 203.32 552.66 199.98 557.56 195.77 561.66 C 191.47 565.65 188.91 570.99 185.83 575.89 C 180.72 584.37 174.96 592.47 170.24 601.19 C 164.72 611.17 159.54 621.34 154.67 631.65 C 149.02 645.05 143.95 658.71 139.85 672.67 C 138.00 679.11 137.03 685.91 133.74 691.84 C 131.72 695.32 130.85 699.27 130.25 703.21 C 130.10 699.95 129.55 696.56 130.71 693.43 C 135.02 683.28 135.68 672.12 138.44 661.53 C 144.73 639.12 153.16 617.33 163.46 596.46 C 168.62 586.18 175.05 576.63 180.57 566.56 C 183.66 560.84 187.97 555.93 191.51 550.50 C 195.03 545.77 197.59 540.14 202.50 536.60 C 207.55 533.00 211.29 527.96 216.11 524.08 C 222.97 518.66 228.97 512.26 235.77 506.77 C 244.71 498.68 255.31 492.72 264.28 484.68 C 272.68 484.65 281.09 484.79 289.49 484.53 Z" />
<path fill="#6d90ae" d=" M 192.31 484.72 C 200.59 484.58 208.87 484.59 217.16 484.68 C 206.03 490.24 194.66 495.43 184.20 502.21 C 178.09 506.91 171.02 510.16 165.08 515.08 C 159.38 519.64 153.02 523.63 148.74 529.67 C 144.71 535.26 139.59 539.93 135.19 545.21 C 122.92 558.92 113.88 575.23 107.10 592.26 C 103.66 598.54 102.81 605.73 100.21 612.32 C 99.10 605.41 101.97 598.88 103.49 592.29 C 105.55 583.56 109.95 575.68 113.53 567.53 C 117.27 558.74 123.25 551.22 128.20 543.12 C 133.89 535.31 139.64 527.39 147.06 521.11 C 152.09 516.79 156.23 511.50 161.59 507.55 C 166.94 503.63 171.63 498.87 177.28 495.35 C 182.46 492.07 187.64 488.72 192.31 484.72 Z" />
<path fill="#010101" d=" M 749.85 533.85 C 764.32 515.20 785.97 500.84 809.97 499.33 C 826.15 499.25 842.33 499.32 858.51 499.31 C 858.64 504.81 856.52 509.97 855.30 515.26 C 854.46 518.30 853.92 521.52 852.31 524.29 C 850.39 525.31 848.13 525.09 846.04 525.19 C 833.01 525.12 819.97 525.14 806.94 525.13 C 801.73 524.91 797.30 528.39 794.39 532.41 C 788.25 540.72 785.43 550.86 782.73 560.69 C 780.59 568.90 778.33 577.38 779.40 585.94 C 779.78 589.87 782.84 593.76 787.02 593.84 C 802.49 594.21 817.99 593.51 833.46 594.19 C 832.36 602.16 829.99 609.93 827.64 617.60 C 827.01 620.21 824.08 619.64 822.06 619.79 C 808.36 619.73 794.66 619.73 780.97 619.78 C 769.13 619.94 757.03 615.87 748.40 607.61 C 739.94 599.86 735.38 588.37 735.30 576.98 C 734.73 561.43 740.71 546.22 749.85 533.85 Z" />
<path fill="#ffffff" d=" M 776.22 516.28 C 785.96 509.93 797.34 505.95 808.98 505.33 C 823.36 505.32 837.75 505.31 852.15 505.35 C 851.12 509.90 849.86 514.39 848.62 518.88 C 834.75 519.45 820.86 518.90 806.98 519.14 C 800.63 519.38 794.92 523.15 791.07 528.03 C 784.59 536.26 781.21 546.37 778.34 556.31 C 775.83 565.68 773.20 575.21 773.41 585.00 C 773.46 589.12 774.34 593.59 777.39 596.59 C 779.81 599.20 783.52 599.97 786.95 599.96 C 800.21 599.98 813.48 599.84 826.75 600.00 C 825.78 604.88 824.46 609.67 823.20 614.48 C 813.80 614.76 804.40 614.54 795.00 614.61 C 785.85 614.44 776.41 615.56 767.62 612.38 C 754.15 608.22 743.89 595.86 741.74 582.01 C 740.33 572.03 741.48 561.67 745.38 552.36 C 751.30 537.32 762.75 524.96 776.22 516.28 Z" />
<path fill="#010101" d=" M 892.89 524.07 C 903.72 521.36 915.81 521.73 925.73 527.28 C 933.85 531.80 939.78 539.74 942.30 548.64 C 943.04 555.50 942.99 562.44 942.25 569.30 C 937.94 588.04 924.13 603.43 907.56 612.56 C 895.31 619.15 880.49 621.99 866.95 618.02 C 854.71 614.51 844.85 603.66 842.92 591.02 C 840.37 575.37 846.56 559.44 856.55 547.54 C 866.10 536.52 878.65 527.72 892.89 524.07 Z" />
<path fill="#010101" d=" M 956.51 532.49 C 962.62 525.41 972.50 520.87 981.87 523.11 C 985.53 523.86 988.42 526.54 990.18 529.74 C 996.20 540.62 1001.30 552.02 1007.88 562.60 C 1010.58 554.19 1012.67 545.60 1014.93 537.07 C 1016.10 532.88 1016.86 528.54 1018.59 524.53 C 1019.57 521.85 1022.75 522.66 1024.97 522.48 C 1030.29 522.63 1035.65 522.18 1040.97 522.74 C 1043.05 523.88 1041.45 526.62 1041.33 528.41 C 1035.41 549.91 1029.75 571.48 1024.02 593.03 C 1022.53 598.27 1021.68 603.92 1018.40 608.42 C 1016.15 611.46 1013.26 614.06 1009.94 615.88 C 1003.98 619.17 996.73 621.09 990.09 618.82 C 987.08 617.85 984.84 615.43 983.27 612.78 C 977.06 601.97 972.52 590.21 965.54 579.84 C 961.51 592.94 958.81 606.43 954.45 619.43 C 946.74 619.90 939.01 619.89 931.30 619.44 C 932.96 610.12 935.92 601.09 938.00 591.87 C 940.57 584.44 942.54 576.83 944.33 569.19 C 946.05 562.64 947.95 556.14 949.60 549.58 C 951.18 543.66 952.38 537.27 956.51 532.49 Z" />
<path fill="#010101" d=" M 1063.84 524.83 C 1070.45 521.64 1077.91 522.62 1085.00 522.52 C 1097.56 522.61 1110.13 522.33 1122.69 522.67 C 1122.13 529.13 1120.17 535.35 1118.43 541.56 C 1117.91 542.75 1117.51 544.75 1115.87 544.73 C 1103.64 545.44 1091.31 543.99 1079.12 545.51 C 1079.03 549.95 1083.31 552.17 1086.04 554.95 C 1092.70 561.25 1100.64 566.82 1104.53 575.40 C 1108.40 584.03 1105.53 594.04 1100.60 601.61 C 1095.39 609.38 1088.00 616.24 1078.82 618.82 C 1074.66 620.07 1070.27 619.75 1065.99 619.77 C 1051.87 619.64 1037.74 619.93 1023.62 619.62 C 1024.35 613.59 1026.02 607.72 1027.78 601.93 C 1028.34 600.36 1029.09 598.10 1031.19 598.39 C 1042.89 598.13 1054.60 598.37 1066.31 598.33 C 1066.68 596.78 1068.06 594.91 1066.52 593.59 C 1060.60 586.72 1052.76 581.91 1045.99 575.97 C 1041.61 571.95 1038.99 565.93 1039.65 559.95 C 1041.18 545.25 1050.24 531.07 1063.84 524.83 Z" />
<path fill="#010101" d=" M 1130.13 529.12 C 1135.86 524.28 1143.59 522.24 1151.00 522.48 C 1168.24 522.66 1185.48 522.31 1202.71 522.67 C 1202.24 528.88 1200.29 534.83 1198.71 540.82 C 1198.11 542.25 1197.84 544.67 1195.87 544.72 C 1183.12 545.27 1170.33 544.37 1157.58 545.17 C 1156.24 550.21 1154.73 555.22 1153.46 560.29 C 1166.44 560.56 1179.42 560.32 1192.41 560.41 C 1192.59 566.17 1190.39 571.61 1189.13 577.15 C 1188.40 579.29 1188.01 582.89 1184.97 582.67 C 1173.96 582.90 1162.94 582.66 1151.94 582.70 C 1150.41 582.73 1148.87 582.77 1147.43 583.24 C 1145.49 588.04 1144.48 593.17 1143.28 598.19 C 1156.34 598.47 1169.41 598.15 1182.48 598.36 C 1182.28 603.50 1180.52 608.37 1179.34 613.32 C 1178.77 615.30 1178.35 617.40 1177.19 619.14 C 1175.56 619.81 1173.77 619.73 1172.07 619.80 C 1155.70 619.71 1139.33 619.76 1122.96 619.77 C 1117.79 619.68 1112.25 618.28 1108.49 614.55 C 1105.71 611.81 1106.16 607.63 1107.11 604.21 C 1112.88 582.70 1118.74 561.21 1124.43 539.68 C 1125.42 535.77 1126.91 531.76 1130.13 529.12 Z" />
<path fill="#010101" d=" M 1209.05 523.94 C 1210.02 522.16 1212.25 522.68 1213.93 522.49 C 1223.50 522.59 1233.08 522.34 1242.65 522.69 C 1242.19 528.50 1240.25 534.03 1238.89 539.66 C 1238.22 541.90 1237.84 544.39 1236.21 546.17 C 1234.21 546.77 1232.08 546.61 1230.04 546.66 C 1221.22 546.55 1212.39 546.65 1203.57 546.59 C 1203.60 541.18 1205.55 536.08 1206.79 530.89 C 1207.43 528.54 1207.88 526.10 1209.05 523.94 Z" />
<path fill="#010101" d=" M 1247.34 530.49 C 1248.34 527.89 1248.25 524.11 1251.08 522.76 C 1257.02 522.13 1263.03 522.69 1269.00 522.52 C 1273.59 522.67 1278.29 521.96 1282.81 523.08 C 1282.95 525.97 1282.27 528.81 1281.51 531.58 C 1277.39 546.16 1273.58 560.84 1269.63 575.47 C 1267.69 583.04 1265.31 590.50 1263.81 598.18 C 1269.18 598.34 1274.57 598.24 1279.95 598.44 C 1279.35 605.49 1277.27 612.38 1274.94 619.03 C 1272.76 619.96 1270.33 619.72 1268.04 619.80 C 1260.01 619.70 1251.97 619.77 1243.95 619.78 C 1238.71 619.78 1233.12 618.46 1229.22 614.79 C 1226.58 612.29 1226.23 608.42 1227.38 605.12 C 1234.01 580.24 1240.76 555.39 1247.34 530.49 Z" />
<path fill="#ffffff" d=" M 893.44 529.71 C 900.61 528.05 908.24 527.91 915.35 529.96 C 925.69 532.93 934.35 541.62 936.69 552.21 C 938.71 561.08 937.28 570.49 933.64 578.76 C 928.44 590.94 918.65 600.73 907.35 607.38 C 896.41 613.69 883.01 616.72 870.63 613.31 C 860.64 610.66 852.21 602.61 849.40 592.63 C 847.45 584.93 847.88 576.63 850.32 569.09 C 856.72 549.80 873.84 534.63 893.44 529.71 Z" />
<path fill="#ffffff" d=" M 957.52 542.81 C 959.46 533.28 970.35 526.23 979.79 529.14 C 983.69 530.35 985.37 534.43 987.08 537.77 C 991.45 547.20 996.84 556.11 1001.39 565.46 C 1002.99 568.56 1004.39 571.81 1006.53 574.61 C 1008.59 575.73 1010.78 574.55 1011.33 572.34 C 1016.16 558.08 1018.21 542.97 1023.23 528.78 C 1027.30 528.26 1031.43 528.56 1035.52 528.67 C 1030.10 550.59 1023.84 572.29 1018.24 594.17 C 1016.80 599.28 1015.97 605.06 1011.85 608.84 C 1007.08 613.11 1000.24 616.07 993.84 614.07 C 991.18 613.34 989.60 610.91 988.43 608.60 C 982.84 597.57 976.81 586.75 971.25 575.71 C 969.88 573.15 968.80 570.29 966.61 568.32 C 963.58 567.05 962.09 570.34 961.56 572.72 C 957.71 586.64 954.30 600.68 950.21 614.53 C 946.29 614.60 942.38 614.60 938.48 614.48 C 944.35 590.47 951.27 566.73 957.52 542.81 Z" />
<path fill="#ffffff" d=" M 1050.60 543.64 C 1055.38 535.78 1063.26 528.56 1072.97 528.53 C 1087.36 528.62 1101.76 528.39 1116.15 528.68 C 1115.42 532.05 1114.61 535.40 1113.75 538.75 C 1104.49 538.93 1095.22 538.81 1085.96 538.79 C 1083.13 538.78 1080.03 538.87 1077.78 540.81 C 1074.74 543.29 1072.08 547.76 1074.23 551.63 C 1078.64 560.03 1087.77 564.18 1093.95 571.05 C 1098.66 576.03 1101.83 583.11 1099.87 590.01 C 1097.15 601.56 1087.68 612.24 1075.77 614.48 C 1060.57 614.80 1045.34 614.51 1030.13 614.60 C 1030.93 611.35 1031.42 607.96 1032.83 604.90 C 1033.95 603.99 1035.57 604.45 1036.93 604.28 C 1045.63 604.26 1054.34 604.46 1063.04 604.29 C 1068.63 604.23 1073.82 598.63 1073.21 593.09 C 1070.87 586.84 1064.85 583.10 1059.86 579.11 C 1054.28 574.71 1047.02 570.66 1045.62 563.06 C 1044.95 556.27 1047.30 549.49 1050.60 543.64 Z" />
<path fill="#ffffff" d=" M 1130.46 538.39 C 1132.24 531.29 1140.46 528.69 1146.97 528.53 C 1163.37 528.62 1179.77 528.39 1196.17 528.67 C 1195.46 532.05 1194.66 535.41 1193.81 538.76 C 1182.86 539.00 1171.90 538.66 1160.96 538.89 C 1156.31 538.89 1151.89 542.26 1151.23 546.96 C 1149.94 553.44 1147.03 559.69 1147.34 566.40 C 1160.23 566.46 1173.12 566.38 1186.01 566.44 C 1185.30 569.86 1184.46 573.26 1183.59 576.65 C 1171.70 576.81 1159.82 576.66 1147.94 576.69 C 1146.31 576.90 1143.95 576.36 1143.30 578.35 C 1140.98 583.79 1139.97 589.70 1138.26 595.35 C 1137.72 597.82 1136.51 601.16 1138.94 603.04 C 1141.90 604.98 1145.66 604.17 1149.01 604.36 C 1158.01 604.31 1167.01 604.27 1176.02 604.38 C 1175.24 607.78 1174.35 611.16 1173.44 614.53 C 1157.28 614.73 1141.11 614.52 1124.95 614.65 C 1120.77 614.77 1116.18 613.78 1113.32 610.52 C 1111.59 608.43 1112.55 605.55 1113.05 603.20 C 1118.91 581.62 1124.67 560.00 1130.46 538.39 Z" />
<path fill="#ffffff" d=" M 1212.96 530.04 C 1213.45 528.19 1215.49 528.63 1216.95 528.52 C 1223.33 528.50 1229.71 528.50 1236.10 528.67 C 1235.16 532.69 1234.01 536.65 1232.75 540.58 C 1225.16 540.58 1217.57 540.62 1209.98 540.57 C 1210.80 537.02 1211.43 533.37 1212.96 530.04 Z" />
<path fill="#ffffff" d=" M 1253.78 528.58 C 1261.37 528.55 1268.96 528.43 1276.55 528.67 C 1270.86 551.39 1264.36 573.91 1258.51 596.59 C 1258.06 599.00 1257.53 602.56 1260.44 603.64 C 1264.71 605.01 1269.35 604.11 1273.78 604.34 C 1272.80 607.77 1271.84 611.20 1270.81 614.61 C 1262.19 614.60 1253.58 614.62 1244.96 614.64 C 1240.89 614.67 1236.30 613.65 1233.67 610.30 C 1231.82 607.96 1233.16 605.00 1233.70 602.46 C 1240.54 577.87 1246.81 553.13 1253.78 528.58 Z" />
<path fill="#010101" d=" M 897.38 539.43 C 901.98 537.92 907.90 538.97 910.63 543.29 C 912.86 547.10 912.73 551.73 912.53 556.01 C 911.97 563.66 909.55 571.02 907.31 578.31 C 904.72 586.21 901.38 594.35 895.00 599.97 C 890.49 603.89 883.51 606.01 878.02 602.90 C 873.63 600.30 872.61 594.71 872.73 590.03 C 873.27 582.06 875.40 574.31 877.71 566.70 C 880.07 559.35 882.86 551.88 887.92 545.91 C 890.43 542.97 893.62 540.51 897.38 539.43 Z" />
<path fill="#ffffff" d=" M 897.33 545.25 C 899.94 544.36 903.25 544.74 905.10 546.98 C 906.64 548.95 906.77 551.57 906.84 553.97 C 906.97 561.13 904.77 568.03 902.93 574.87 C 901.09 581.19 898.94 587.63 894.92 592.94 C 892.21 596.37 887.72 599.41 883.19 598.02 C 879.89 596.95 878.72 593.19 878.61 590.06 C 878.50 584.62 879.90 579.30 881.19 574.06 C 883.21 566.33 885.31 558.44 889.68 551.65 C 891.54 548.87 894.08 546.33 897.33 545.25 Z" />
<path fill="#010101" d=" M 1202.32 551.30 C 1205.83 550.58 1209.44 550.91 1213.01 550.86 C 1220.37 550.99 1227.75 550.59 1235.10 551.23 C 1233.76 560.70 1230.49 569.76 1228.24 579.04 C 1225.07 590.94 1221.88 602.85 1218.77 614.77 C 1218.03 616.67 1217.54 619.93 1214.87 619.68 C 1204.47 619.83 1194.06 619.83 1183.67 619.60 C 1184.78 611.06 1187.85 602.96 1189.80 594.60 C 1193.14 582.31 1196.43 570.00 1199.64 557.68 C 1200.29 555.47 1200.78 553.09 1202.32 551.30 Z" />
<path fill="#ffffff" d=" M 944.31 556.85 C 945.86 557.09 945.86 560.91 944.30 561.17 C 943.32 560.03 943.32 557.97 944.31 556.85 Z" />
<path fill="#ffffff" d=" M 1205.42 557.13 C 1213.10 556.74 1220.80 556.88 1228.50 557.00 C 1223.73 576.25 1218.20 595.32 1213.25 614.53 C 1205.54 614.67 1197.83 614.63 1190.13 614.57 C 1195.13 595.40 1200.55 576.34 1205.42 557.13 Z" />
<path fill="#838383" d=" M 129.18 704.76 C 130.60 704.31 131.10 706.70 129.83 707.17 C 128.41 707.60 127.91 705.21 129.18 704.76 Z" />
</svg>
